<svg width="25" height="21" viewBox="0 0 25 21" fill="none" xmlns="http://www.w3.org/2000/svg">
<path d="M12.1695 5.44795L4.16732 12.5667V20.2499C4.16732 20.4489 4.24048 20.6396 4.37072 20.7803C4.50095 20.921 4.67758 21 4.86176 21L9.72548 20.9864C9.90905 20.9854 10.0848 20.9059 10.2143 20.7654C10.3438 20.6248 10.4165 20.4346 10.4164 20.2363V15.7494C10.4164 15.5505 10.4896 15.3597 10.6198 15.219C10.7501 15.0784 10.9267 14.9993 11.1109 14.9993H13.8887C14.0728 14.9993 14.2495 15.0784 14.3797 15.219C14.51 15.3597 14.5831 15.5505 14.5831 15.7494V20.233C14.5828 20.3317 14.6006 20.4295 14.6354 20.5208C14.6701 20.6121 14.7212 20.695 14.7857 20.7649C14.8503 20.8348 14.9269 20.8903 15.0113 20.9281C15.0957 20.966 15.1862 20.9855 15.2776 20.9855L20.1395 21C20.3237 21 20.5004 20.921 20.6306 20.7803C20.7608 20.6396 20.834 20.4489 20.834 20.2499V12.5616L12.8335 5.44795C12.7395 5.36606 12.6223 5.32141 12.5015 5.32141C12.3807 5.32141 12.2635 5.36606 12.1695 5.44795ZM24.8097 10.2865L21.1812 7.05594V0.562563C21.1812 0.413362 21.1263 0.270272 21.0287 0.164771C20.931 0.0592699 20.7985 0 20.6604 0H18.2298C18.0917 0 17.9592 0.0592699 17.8615 0.164771C17.7639 0.270272 17.709 0.413362 17.709 0.562563V3.96654L13.8231 0.513339C13.4502 0.181886 12.9823 0.00066258 12.4993 0.00066258C12.0164 0.00066258 11.5485 0.181886 11.1756 0.513339L0.189019 10.2865C0.136279 10.3335 0.0926449 10.3914 0.0606102 10.4567C0.0285755 10.522 0.00876769 10.5935 0.00231864 10.6671C-0.0041304 10.7406 0.00290567 10.8149 0.0230248 10.8855C0.043144 10.9561 0.0759519 11.0218 0.119574 11.0787L1.22634 12.532C1.26985 12.5892 1.32336 12.6365 1.38381 12.6712C1.44426 12.706 1.51047 12.7276 1.57864 12.7347C1.64681 12.7418 1.71561 12.7343 1.7811 12.7126C1.84659 12.6909 1.90748 12.6555 1.96029 12.6084L12.1695 3.52586C12.2635 3.44397 12.3807 3.39932 12.5015 3.39932C12.6223 3.39932 12.7395 3.44397 12.8335 3.52586L23.0432 12.6084C23.0959 12.6556 23.1567 12.691 23.2221 12.7127C23.2875 12.7345 23.3562 12.7421 23.4243 12.7351C23.4924 12.7281 23.5586 12.7067 23.6191 12.6721C23.6795 12.6375 23.7331 12.5904 23.7767 12.5334L24.8835 11.0801C24.927 11.0229 24.9597 10.9569 24.9796 10.8859C24.9995 10.815 25.0062 10.7405 24.9993 10.6667C24.9925 10.593 24.9722 10.5214 24.9396 10.4562C24.9071 10.3909 24.8629 10.3332 24.8097 10.2865Z" fill="#E65A2E"/>
</svg>
